<?xml version="1.0" standalone="no"?>
<!DOCTYPE svg PUBLIC "-//W3C//DTD SVG 20010904//EN"
 "http://www.w3.org/TR/2001/REC-SVG-20010904/DTD/svg10.dtd">
<svg version="1.0" xmlns="http://www.w3.org/2000/svg"
 width="700.000000pt" height="226.000000pt" viewBox="0 0 700.000000 226.000000"
 preserveAspectRatio="xMidYMid meet">

<g transform="translate(0.000000,226.000000) scale(0.100000,-0.100000)"
fill="#000000" stroke="none">
<path d="M1240 2060 c-7 -14 -11 -50 -8 -91 l4 -69 -66 -2 c-36 -1 -77 -1 -92
0 -18 1 -28 -3 -28 -11 0 -13 -30 -47 -42 -47 -3 0 -13 28 -22 63 -22 77 -37
109 -55 115 -11 4 -12 -9 -6 -68 4 -41 11 -87 16 -104 5 -17 9 -44 9 -60 0
-31 -54 -118 -118 -191 l-38 -44 -19 52 c-34 97 -74 166 -105 182 -33 17 -83
10 -162 -24 l-46 -19 -48 49 c-53 54 -63 58 -87 31 -16 -17 -14 -22 20 -71
l36 -52 -24 -17 c-148 -104 -289 -294 -285 -387 1 -38 4 -42 54 -68 62 -34
196 -61 264 -53 66 7 79 -11 41 -59 -15 -20 -38 -38 -50 -41 -13 -4 -21 -9
-19 -13 3 -4 -11 -27 -30 -51 -45 -57 -27 -64 28 -11 24 22 50 41 59 41 9 0
49 -8 90 -19 41 -10 86 -21 101 -25 l27 -6 -25 -55 c-13 -31 -24 -66 -24 -79
0 -39 -11 -56 -34 -56 -12 0 -32 -9 -45 -21 -20 -19 -21 -23 -8 -42 16 -24
101 -53 192 -64 59 -8 60 -8 56 -38 -4 -39 -15 -45 -84 -45 -57 0 -58 1 -73
36 -17 41 -37 40 -44 -2 -6 -31 0 -30 -110 -26 -44 2 -51 5 -65 33 -12 22 -22
29 -38 27 -44 -6 -32 -62 52 -229 l19 -37 -30 -30 c-50 -49 -35 -54 130 -46
81 4 292 7 468 6 304 -2 328 0 435 22 63 14 117 22 121 20 5 -3 8 -29 8 -59 0
-74 6 -85 45 -85 41 0 43 3 50 71 3 30 8 68 11 85 3 17 -1 53 -10 80 -42 137
-59 160 -96 136 -32 -20 -79 -15 -101 11 -18 21 -19 21 -34 3 -12 -16 -22 -18
-77 -12 -40 5 -66 13 -74 24 -11 16 -14 16 -31 -1 -16 -14 -38 -17 -116 -17
l-96 0 -3 32 c-4 47 -33 49 -48 4 l-12 -36 -79 0 -79 0 0 29 0 28 100 12 c155
17 230 14 297 -11 53 -21 72 -22 234 -20 97 2 207 -2 244 -8 77 -12 105 -7
105 21 0 20 -55 49 -96 49 -26 0 -36 11 -25 28 7 12 109 -11 194 -43 47 -19
57 -19 57 0 0 8 -14 24 -31 34 -25 15 -27 20 -13 25 13 5 15 14 10 46 -3 22
-5 40 -3 40 10 0 124 -43 221 -84 143 -60 155 -60 204 7 51 69 112 210 119
272 6 57 -15 152 -51 231 -19 40 -35 58 -71 79 -42 25 -53 27 -111 22 -84 -8
-333 -91 -349 -117 -20 -33 -25 0 -19 128 6 131 8 138 34 167 14 17 55 65 89
107 95 119 62 125 -69 13 -35 -30 -68 -55 -72 -55 -4 0 -16 17 -27 38 -11 22
-36 60 -56 86 l-36 47 46 61 c26 33 44 62 42 65 -3 2 -29 -21 -58 -51 -30 -31
-58 -56 -64 -56 -5 1 -20 9 -32 19 l-23 19 28 57 c25 53 29 56 58 52 17 -3 37
-1 45 4 20 14 -10 35 -62 43 -45 7 -63 1 -55 -20 6 -16 -42 -124 -55 -124 -13
0 -11 20 10 86 29 90 32 112 20 120 -7 4 -19 -2 -28 -14 -15 -18 -21 -19 -84
-10 -51 8 -75 7 -95 -2 -26 -11 -26 -12 -7 -26 10 -8 27 -14 37 -14 22 0 22
-3 4 -55 -13 -36 -18 -40 -48 -40 l-33 0 -16 76 c-9 42 -23 86 -32 99 l-15 22
-12 -22z m270 -83 c0 -2 -6 -17 -14 -33 -8 -16 -20 -42 -27 -59 -10 -24 -13
-27 -17 -11 -2 10 -1 38 3 62 5 38 9 44 31 44 13 0 24 -2 24 -3z m-192 -167
l52 1 1 -33 c1 -18 4 -44 9 -58 7 -25 7 -25 22 10 8 19 18 43 21 53 12 31 26
9 17 -24 -7 -24 -6 -35 7 -47 14 -14 17 -14 29 3 8 10 14 24 14 31 0 6 7 18
16 25 15 12 16 11 9 -11 -8 -25 -8 -25 14 -6 17 16 26 17 45 8 l24 -11 -26
-52 c-25 -50 -64 -79 -107 -79 -9 0 -35 -9 -58 -20 -32 -16 -43 -17 -48 -8 -6
11 -81 111 -153 205 l-20 26 40 -7 c21 -4 63 -7 92 -6z m-141 -91 c37 -44 84
-102 104 -127 20 -26 46 -56 58 -66 21 -19 22 -19 74 7 29 15 61 27 71 27 11
0 39 9 63 21 34 16 45 29 54 58 6 20 19 48 30 62 18 24 18 24 34 4 28 -36 64
-100 70 -125 5 -22 -3 -35 -59 -89 l-66 -63 -31 26 c-42 36 -67 40 -133 22
-70 -18 -90 -35 -127 -108 -39 -76 -38 -127 2 -206 24 -49 28 -65 20 -81 -16
-29 -14 -31 25 -31 24 0 46 -8 66 -25 109 -92 249 73 216 254 l-10 54 52 51
52 51 -6 -72 c-3 -39 -11 -84 -16 -98 -6 -15 -13 -75 -16 -134 l-6 -106 -47
-49 c-25 -26 -72 -71 -105 -98 -55 -46 -61 -49 -100 -43 -40 7 -439 100 -485
114 -19 6 -28 22 -48 90 -27 96 -77 206 -121 271 l-31 45 24 23 c14 13 25 30
25 38 0 42 154 224 164 193 18 -57 16 -90 -7 -122 -14 -17 -32 -46 -41 -64
-38 -76 -4 -169 67 -187 30 -8 39 -16 45 -40 6 -21 15 -32 30 -34 21 -3 22 1
22 55 0 48 5 66 26 94 54 71 74 125 74 193 0 58 -3 67 -27 86 -26 20 -36 21
-93 8 -9 -2 -17 16 -26 57 -12 58 -12 60 17 102 17 24 34 43 39 43 4 0 39 -36
77 -81z m-519 -168 l72 -150 -17 -55 c-10 -31 -21 -56 -24 -56 -3 0 -10 10
-16 23 -6 12 -23 37 -38 55 -22 27 -30 30 -46 21 -20 -10 -20 -11 7 -57 15
-26 34 -55 42 -65 8 -9 13 -18 11 -20 -2 -1 -36 -19 -76 -39 l-72 -36 -26 44
c-14 24 -28 44 -30 44 -15 0 -35 -14 -35 -25 0 -14 4 -15 -167 32 -87 23 -99
29 -84 40 10 7 50 54 89 106 66 87 173 197 192 197 11 0 58 -60 104 -133 25
-39 43 -57 54 -55 32 6 24 49 -24 145 l-48 95 24 19 c14 10 27 19 30 19 3 0
38 -67 78 -149z m461 -53 c-23 -19 -49 -24 -49 -9 0 5 12 19 27 31 20 16 28
18 35 8 5 -8 0 -19 -13 -30z m-9 -97 c-11 -23 -22 -41 -24 -41 -12 0 3 62 19
80 27 30 30 9 5 -39z m387 19 c22 -10 43 -27 47 -35 4 -13 0 -12 -20 4 -16 12
-41 21 -62 21 -29 0 -33 2 -22 15 15 18 8 19 57 -5z m-506 -62 c-9 -31 -9 -31
-10 -6 -1 30 11 67 16 51 2 -6 0 -26 -6 -45z m472 -88 c-21 -28 -41 -50 -45
-50 -13 0 -9 49 7 80 17 33 33 41 57 28 16 -8 14 -14 -19 -58z m799 18 c11 -9
19 -49 28 -133 24 -216 16 -282 -44 -347 -38 -42 -61 -39 -211 27 -110 48
-150 56 -172 34 -17 -17 -41 77 -45 171 l-3 75 35 12 c44 15 158 16 214 2 42
-10 44 -12 49 -56 2 -24 10 -50 17 -56 10 -10 11 -2 6 35 -5 31 -3 53 6 67 17
28 -9 55 -81 82 -56 21 -156 23 -206 4 -11 -4 -6 2 11 13 92 60 351 105 396
70z m-1469 -141 c26 -78 47 -148 47 -156 0 -10 -8 -12 -27 -7 -16 3 -104 21
-197 40 -158 33 -185 40 -175 50 62 56 182 128 252 150 10 3 24 20 30 36 6 17
14 30 17 30 3 0 26 -65 53 -143z m797 61 c-1 -34 -9 -70 -23 -98 -18 -37 -29
-47 -59 -54 -31 -8 -41 -6 -58 9 -26 23 -25 35 0 35 50 0 100 44 100 89 0 28
18 71 30 71 6 0 10 -23 10 -52z m-848 -247 c10 -9 -19 -123 -34 -132 -20 -13
-58 -11 -58 4 0 16 18 85 32 120 8 22 15 26 32 21 11 -3 24 -9 28 -13z m117
-36 c11 -11 13 -23 5 -52 -8 -35 -12 -38 -49 -41 -22 -2 -43 -9 -48 -15 -9
-13 2 112 10 127 7 11 65 -1 82 -19z m855 -18 c3 -13 23 -51 46 -85 22 -35 40
-64 40 -66 0 -1 -37 7 -82 20 -46 12 -96 25 -112 29 l-29 6 59 60 c32 32 61
59 65 59 4 0 9 -10 13 -23z m-707 -11 c1 -1 -4 -22 -11 -46 -17 -58 -41 -64
-50 -13 -11 71 -10 75 27 68 17 -4 33 -8 34 -9z m133 -33 c55 -15 60 -19 60
-44 0 -43 -10 -59 -37 -59 -30 0 -115 20 -126 30 -12 11 14 90 30 90 7 0 40
-7 73 -17z m-250 -33 c0 -5 -2 -10 -4 -10 -3 0 -8 5 -11 10 -3 6 -1 10 4 10 6
0 11 -4 11 -10z m457 -21 c16 -6 23 -15 21 -27 -3 -14 -17 -18 -71 -22 -38 -3
-70 -4 -71 -3 -1 1 0 19 2 39 l4 36 46 -7 c25 -4 56 -11 69 -16z m83 -22 c0
-2 -9 -12 -20 -22 -19 -18 -20 -17 -20 3 0 15 6 22 20 22 11 0 20 -2 20 -3z
m140 -28 c48 -10 61 -21 40 -34 -6 -4 -41 -3 -77 1 l-67 7 23 18 c13 11 25 19
27 19 1 0 26 -5 54 -11z m-1023 -223 c1 -1 5 -32 9 -69 l7 -67 -46 0 -45 0
-20 58 c-10 31 -23 65 -27 76 -8 17 -4 18 56 11 35 -4 65 -8 66 -9z m156 -12
l37 -7 0 -53 0 -54 -54 0 c-52 0 -55 1 -60 30 -3 17 -9 44 -12 60 -5 28 -3 30
23 30 15 0 45 -3 66 -6z m229 -23 c4 -3 4 -25 1 -48 l-6 -43 -62 0 -62 0 -6
47 c-3 27 -3 51 -1 55 5 7 126 -2 136 -11z m242 -18 c-9 -64 -8 -63 -89 -63
l-75 0 0 45 0 44 63 4 c34 2 72 4 84 5 20 2 21 -2 17 -35z m238 13 c4 -6 8
-26 8 -43 l0 -33 -91 0 -91 0 7 43 c4 23 13 45 19 50 16 10 139 -3 148 -17z
m116 -24 c3 -36 0 -42 -17 -42 -23 0 -26 4 -35 47 -6 25 -4 32 11 36 31 8 38
1 41 -41z"/>
<path d="M2070 1020 c0 -5 5 -10 10 -10 6 0 10 5 10 10 0 6 -4 10 -10 10 -5 0
-10 -4 -10 -10z"/>
<path d="M2117 964 c-14 -14 -7 -35 11 -32 9 2 17 10 17 17 0 16 -18 25 -28
15z"/>
<path d="M2860 2000 c-107 -37 -156 -123 -130 -230 17 -70 69 -115 197 -169
105 -44 128 -65 96 -89 -25 -19 -152 -9 -232 18 -33 11 -63 20 -66 20 -3 0 -4
-42 -3 -92 l3 -93 40 -14 c64 -22 271 -27 338 -7 102 30 156 101 157 206 0
105 -55 164 -204 220 -90 34 -112 50 -102 75 8 23 89 19 169 -9 l69 -23 24 55
c42 95 42 98 -8 115 -118 43 -254 50 -348 17z"/>
<path d="M4546 2005 c-21 -7 -53 -27 -70 -44 -18 -17 -35 -31 -38 -31 -3 0
-13 18 -22 40 l-16 40 -90 0 -90 0 0 -335 0 -335 119 0 120 0 3 208 c3 231 10
258 69 282 27 12 36 11 58 -1 47 -26 51 -48 51 -276 l0 -213 119 0 120 0 3
208 c3 186 5 210 23 241 25 42 65 58 104 41 47 -19 51 -43 51 -275 l0 -215
121 0 120 0 -3 268 c-3 263 -3 268 -28 312 -65 117 -283 137 -386 35 l-25 -25
-40 33 c-21 19 -56 39 -78 45 -51 16 -147 14 -195 -3z"/>
<path d="M5791 2004 c-19 -8 -49 -30 -67 -50 l-33 -35 -16 37 c-8 20 -15 40
-15 45 0 5 -45 9 -100 9 l-100 0 0 -485 0 -485 121 0 121 0 -4 184 -3 185 25
-24 c83 -80 233 -72 317 16 57 60 76 120 81 251 4 98 1 127 -16 185 -38 121
-112 183 -222 182 -30 0 -70 -6 -89 -15z m39 -179 c39 -20 53 -71 48 -168 -5
-100 -26 -132 -88 -132 -64 0 -84 32 -88 139 -4 94 13 151 50 166 33 13 45 12
78 -5z"/>
<path d="M3392 1748 c3 -250 4 -265 25 -305 40 -75 112 -113 212 -113 78 0
126 16 170 56 21 19 41 34 45 34 3 0 13 -18 22 -40 l16 -40 89 0 89 0 0 335 0
335 -120 0 -120 0 0 -187 c0 -203 -7 -247 -44 -282 -33 -31 -89 -32 -119 -3
-21 22 -22 30 -25 247 l-3 225 -120 0 -120 0 3 -262z"/>
<path d="M6180 770 l0 -470 120 0 120 0 0 181 c0 99 5 200 11 224 21 82 92
117 145 72 l29 -25 3 -226 3 -226 120 0 119 0 0 243 c0 133 -5 258 -10 278
-17 61 -52 102 -109 132 -97 49 -235 31 -288 -37 -12 -14 -23 -26 -26 -26 -2
0 -2 79 1 175 l5 175 -122 0 -121 0 0 -470z"/>
<path d="M2860 960 c-107 -37 -156 -123 -130 -230 17 -70 69 -115 197 -169
105 -44 128 -65 96 -89 -25 -19 -152 -9 -232 18 -33 11 -63 20 -66 20 -3 0 -4
-42 -3 -92 l3 -93 40 -14 c64 -22 271 -27 338 -7 102 30 156 101 157 206 0
105 -55 164 -204 220 -90 34 -112 50 -102 75 8 23 89 19 169 -9 l69 -23 24 55
c42 95 42 98 -8 115 -118 43 -254 50 -348 17z"/>
<path d="M3576 964 c-98 -31 -171 -104 -198 -198 -19 -65 -16 -213 5 -273 26
-73 83 -134 159 -168 51 -23 81 -29 160 -33 102 -5 201 9 250 34 27 14 28 17
28 98 l0 83 -67 -23 c-86 -30 -210 -33 -254 -7 -24 14 -59 66 -59 87 0 3 95 6
210 6 l210 0 0 95 c0 148 -43 231 -148 282 -48 23 -71 28 -152 30 -65 2 -110
-2 -144 -13z m185 -154 c19 -10 49 -59 49 -80 0 -6 -37 -10 -100 -10 -95 0
-100 1 -100 21 0 11 13 34 29 50 31 31 83 39 122 19z"/>
<path d="M4341 970 c-69 -15 -141 -41 -141 -51 0 -13 50 -132 60 -142 4 -5 35
1 68 12 64 22 132 29 168 17 19 -6 44 -43 44 -65 0 -4 -46 -11 -102 -14 -126
-8 -197 -28 -244 -69 -50 -44 -65 -80 -65 -153 0 -144 70 -214 217 -215 79 0
158 31 194 77 23 30 21 31 49 -25 l21 -42 80 0 80 0 0 250 c0 273 -4 296 -58
353 -53 56 -96 71 -217 73 -60 2 -130 -1 -154 -6z m199 -399 c0 -69 -41 -113
-105 -113 -47 0 -65 17 -65 62 0 54 37 77 128 79 40 1 42 0 42 -28z"/>
<path d="M5264 961 c-22 -10 -57 -38 -77 -61 -20 -24 -39 -42 -41 -39 -2 2
-11 28 -20 57 l-18 52 -89 0 -89 0 0 -335 0 -335 120 0 120 0 0 185 c0 145 3
192 15 215 20 39 88 64 158 58 l54 -4 10 105 c6 58 9 109 6 114 -8 14 -108 6
-149 -12z"/>
<path d="M5727 969 c-53 -13 -128 -52 -159 -86 -118 -124 -112 -407 11 -515
65 -57 113 -72 241 -72 100 -1 122 2 168 23 l52 23 0 94 c0 52 -2 94 -5 94 -3
0 -25 -10 -48 -22 -28 -14 -67 -23 -117 -26 -69 -4 -77 -2 -102 21 -34 32 -52
97 -43 161 16 124 94 162 228 108 22 -8 42 -11 46 -6 4 5 22 44 39 87 l31 77
-37 16 c-81 33 -216 44 -305 23z"/>
</g>
</svg>
